<?xml version="1.0" encoding="utf-8"?>
<!-- Generator: Adobe Illustrator 19.2.1, SVG Export Plug-In . SVG Version: 6.00 Build 0)  -->
<svg version="1.1" id="layer" xmlns="http://www.w3.org/2000/svg" xmlns:xlink="http://www.w3.org/1999/xlink" x="0px" y="0px"
	 viewBox="0 0 652 652" style="enable-background:new 0 0 652 652;" xml:space="preserve">
<style type="text/css">
	.st0{fill:#2D2926;}
</style>
<title>Matrix_BW_Logo</title>
<desc>Created with Sketch.</desc>
<path class="st0" d="M83.7,333.4l-8.2-52.5h-6.1l-16.4,37.7l-16.8-37.7h-6L22,333.4h8.9l4.5-31.5l14,31.5h5.6l13.7-31.8l4.4,31.8
	C73.1,333.4,83.7,333.4,83.7,333.4z M144.1,333.4l-23.9-52.5h-3.6l-24.8,52.5h9.2l5.2-11.6h21.5l5.2,11.6L144.1,333.4L144.1,333.4z
	 M124.6,314.9h-15.3l7.5-17C116.8,297.8,124.6,314.9,124.6,314.9z M154.8,280.9v52.5h10.6v-23.2c2.1,0.4,4,0.6,6.1,0.6l13.3,22.6
	h11.8L182,308.5c5.5-2.5,9-7.2,9-13.6c0-2.5-0.7-5.4-1.9-7.4c-3.5-5.7-9.2-6.5-15.3-6.5L154.8,280.9L154.8,280.9z M165.3,288.1h4.4
	c5.6,0,10.6,1.9,10.6,8.4c0,5.1-3.9,10-13.9,10h-1V288.1L165.3,288.1z M240.9,333.4V326h-23.5v-45.2h-10.6v52.5L240.9,333.4
	L240.9,333.4z M287.6,333.4v-7.1h-25.1v-16.4h19.3v-7.2h-19.3V288h22.1v-7.1H252v52.5H287.6L287.6,333.4z M407.7,292.7
	c-1.1-10.7-9.7-13.5-17.6-13.5c-17.3,0-20.1,11.2-20.1,16.5c0,9.2,6.9,13.7,16.8,15.3c4.9,0.8,10.9,2.3,10.9,8.6
	c0,4.1-3.3,8.9-11.1,8.9c-2.6,0-11.6-0.4-15.7-10.3l-2.9,1c0.7,7.8,5.9,15.7,19.5,15.7c15.2,0,21-9.2,21-17.4
	c0-7.6-4.5-13.4-18.2-16c-6.9-1.3-10-3.6-10-7.9c0-6.7,7.2-8.2,11.4-8.2c1.8,0,10.1,0.3,12.8,8L407.7,292.7L407.7,292.7z
	 M418.9,280.9v52.5h10.6v-23.3c2,0.2,3.9,0.5,6,0.5c9.4,0,20.2-5,20.2-15.9c0-7.2-4.9-13.8-17-13.8L418.9,280.9L418.9,280.9z
	 M429.5,288h4.8c4.7,0,10.4,2.2,10.4,8.9c0,7.7-8.5,9.7-13.6,9.7h-1.6L429.5,288L429.5,288z M509.8,307c0-16.1-9.3-26.2-24.3-26.2
	c-15.9,0-24.1,11.3-24.1,26.5c0,15.1,8.2,26.1,24,26.1C505,333.4,509.8,317.2,509.8,307z M499.1,307c0,9.1-2.5,19.8-13.5,19.8
	c-11.1,0-13.4-11.4-13.4-20.4c0-8.5,3.1-19,13.3-19C496.2,287.4,499.1,298,499.1,307z M566.7,307c0-16.1-9.3-26.2-24.3-26.2
	c-15.9,0-24.1,11.3-24.1,26.5c0,15.1,8.2,26.1,24,26.1C561.9,333.4,566.7,317.2,566.7,307z M556,307c0,9.1-2.5,19.8-13.5,19.8
	c-11.1,0-13.4-11.4-13.4-20.4c0-8.5,3.1-19,13.3-19C553.1,287.4,556,298,556,307z M622,334.1v-53.2h-8.7v31.9l-28.1-31.9h-9.5v52.5
	h8.7v-38.5l34.8,39.2L622,334.1L622,334.1z M340.4,280.9l-18.2,38.5l-14.9-38.5h-11.4l20.4,51.2c0,0,0,0.7-5.4,8.9
	c-5.1,7.8-12.1,14.5-21.8,15.4c-9.1,0.9-18.9-2-26-7.2l-1.7,2.2l0.9,1c5.4,5.2,16.3,9.9,25.7,9.9c7.1,0,14-2.2,19.8-6.1
	c5.9-4,10-9.7,13.7-15.7c1.1-1.8,2.1-3.7,3.2-5.5c5.7-10.1,26-53.7,26.2-54.1H340.4z"/>
</svg>
